<?xml version="1.0" encoding="UTF-8"?>
<!DOCTYPE svg PUBLIC "-//W3C//DTD SVG 1.1//EN" "http://www.w3.org/Graphics/SVG/1.1/DTD/svg11.dtd">
<svg xmlns="http://www.w3.org/2000/svg" version="1.1" width="145px" height="120px" style="shape-rendering:geometricPrecision; text-rendering:geometricPrecision; image-rendering:optimizeQuality; fill-rule:evenodd; clip-rule:evenodd" xmlns:xlink="http://www.w3.org/1999/xlink">
<g><path style="opacity:0.982" fill="#fefffe" d="M 144.5,18.5 C 144.5,19.5 144.5,20.5 144.5,21.5C 137.898,45.24 131.898,69.24 126.5,93.5C 123.482,93.3354 120.482,93.502 117.5,94C 123.118,98.0863 124.951,103.586 123,110.5C 121.129,114.994 117.962,117.994 113.5,119.5C 109.833,119.5 106.167,119.5 102.5,119.5C 94.0856,116.006 90.9189,109.673 93,100.5C 94.2606,97.7886 96.094,95.622 98.5,94C 86.1667,93.3333 73.8333,93.3333 61.5,94C 66.1956,100.131 66.6956,106.631 63,113.5C 54.6667,120.167 46.3333,120.167 38,113.5C 34.3044,106.631 34.8044,100.131 39.5,94C 38.2068,93.51 36.8734,93.3433 35.5,93.5C 30.2303,70.2541 24.5636,47.0874 18.5,24C 13.0547,17.5523 7.22142,11.3856 1,5.5C 0.5,2 2,0.5 5.5,1C 10.4672,6.96853 15.8005,12.6352 21.5,18C 62.4986,18.5 103.499,18.6667 144.5,18.5 Z"/></g>
</svg>
