<?xml version="1.0" encoding="UTF-8"?>
<!DOCTYPE svg PUBLIC "-//W3C//DTD SVG 1.1//EN" "http://www.w3.org/Graphics/SVG/1.1/DTD/svg11.dtd">
<svg xmlns="http://www.w3.org/2000/svg" version="1.1" width="122px" height="98px" style="shape-rendering:geometricPrecision; text-rendering:geometricPrecision; image-rendering:optimizeQuality; fill-rule:evenodd; clip-rule:evenodd" xmlns:xlink="http://www.w3.org/1999/xlink">
<g><path style="opacity:0.972" fill="#fefffe" d="M 21.5,-0.5 C 25.8333,-0.5 30.1667,-0.5 34.5,-0.5C 46.4224,2.90655 55.2558,10.2399 61,21.5C 66.0074,9.98436 74.5074,2.65102 86.5,-0.5C 90.8333,-0.5 95.1667,-0.5 99.5,-0.5C 111.626,2.62471 118.959,10.2914 121.5,22.5C 121.5,25.8333 121.5,29.1667 121.5,32.5C 118.661,44.1738 113.161,54.5072 105,63.5C 92.0884,76.5972 77.9217,87.9306 62.5,97.5C 61.1667,97.5 59.8333,97.5 58.5,97.5C 43.7497,88.6019 30.2497,77.9352 18,65.5C 9.18904,55.8679 3.02238,44.8679 -0.5,32.5C -0.5,29.1667 -0.5,25.8333 -0.5,22.5C 2.3909,10.6086 9.72424,2.94195 21.5,-0.5 Z"/></g>
</svg>
