<?xml version="1.0" encoding="UTF-8"?>
<!DOCTYPE svg PUBLIC "-//W3C//DTD SVG 1.1//EN" "http://www.w3.org/Graphics/SVG/1.1/DTD/svg11.dtd">
<svg xmlns="http://www.w3.org/2000/svg" version="1.1" width="101px" height="157px" style="shape-rendering:geometricPrecision; text-rendering:geometricPrecision; image-rendering:optimizeQuality; fill-rule:evenodd; clip-rule:evenodd" xmlns:xlink="http://www.w3.org/1999/xlink">
<g><path style="opacity:0.98" fill="#fefffe" d="M 41.5,-0.5 C 48.5,-0.5 55.5,-0.5 62.5,-0.5C 81.7369,5.07001 94.4035,17.4033 100.5,36.5C 100.5,42.8333 100.5,49.1667 100.5,55.5C 96.3405,69.9991 87.6738,80.9991 74.5,88.5C 82.9437,110.368 91.6104,132.035 100.5,153.5C 100.5,154.5 100.5,155.5 100.5,156.5C 66.8333,156.5 33.1667,156.5 -0.5,156.5C -0.5,155.5 -0.5,154.5 -0.5,153.5C 8.59395,131.464 17.5939,109.297 26.5,87C 1.96121,69.6227 -3.53879,47.4561 10,20.5C 18.1441,9.85283 28.6441,2.85283 41.5,-0.5 Z"/></g>
</svg>
